<svg width="50" height="60" viewBox="0 0 50 60" fill="none" xmlns="http://www.w3.org/2000/svg">
<path d="M0 0V40.866C0 45.588 1.83956 53.5187 14.1511 53.5187C21.635 53.5187 25 60 25 60C25 60 28.1138 53.5187 35.8489 53.5187C48.1604 53.5187 50 45.588 50 40.866V0H0ZM47.1734 40.7931C47.1734 47.2835 43.3597 50.5743 35.8489 50.5743C28.3381 50.5743 25.4397 54.7584 25.4128 54.7949L25.0449 55.4148L24.659 54.804C22.281 51.0757 18.0187 50.5743 14.1601 50.5743C6.64932 50.5743 2.83561 47.2835 2.83561 40.7931V2.80766H47.1734V40.7931Z" fill="#107E50"/>
<path d="M33.3094 25.907C32.1518 29.1613 31.2006 31.8504 31.1916 31.8778C31.1826 31.9234 31.4339 31.9325 36.3065 31.9325H41.4303V31.8687C41.4303 31.8687 40.4612 29.1795 39.3036 25.9708C38.146 22.762 36.9974 19.5715 36.7462 18.8878C36.5039 18.2041 36.2885 17.6298 36.2796 17.6207C36.2796 17.6116 36.0732 18.1403 35.8399 18.7967C35.6066 19.453 34.4669 22.6617 33.3094 25.9161V25.907Z" fill="#107E50"/>
<path d="M18.6917 31.9325V31.7957C18.6917 31.7046 18.6468 31.5223 18.5481 31.2488C18.4045 30.8386 17.1482 27.3381 14.878 20.9662C14.2229 19.143 13.6845 17.6298 13.6666 17.6025C13.6486 17.566 13.6396 17.566 13.6217 17.6116C13.523 17.8668 8.58759 31.8231 8.57861 31.8687V31.9325H13.6307H18.7007H18.6917Z" fill="#107E50"/>
<path d="M14.151 49.6627C18.0634 49.6627 22.3797 50.1641 25.0358 53.783C26.0588 52.5524 29.1636 49.6627 35.8398 49.6627C42.857 49.6627 46.267 46.7639 46.267 40.7931V3.71924H3.72388V40.7931C3.72388 46.7639 7.13378 49.6627 14.151 49.6627ZM7.47477 31.9325C7.54656 31.9052 7.61835 31.8596 7.65424 31.814C7.68116 31.7685 7.79782 31.4768 7.91447 31.1577C8.02215 30.8478 9.28741 27.2835 10.7321 23.2452C12.7512 17.5661 13.3434 15.8888 13.3255 15.825C13.2985 15.7065 13.1909 15.6336 12.9306 15.515C12.482 15.3236 12.3294 15.2416 12.2845 15.1595C12.2307 15.0593 12.2666 14.959 12.3743 14.8861C12.4461 14.8405 12.473 14.8405 12.6166 14.8678C12.7063 14.8861 12.8678 14.9408 12.9665 14.9863C13.146 15.0593 13.1729 15.0684 13.6395 15.0593C14.492 15.0593 14.8868 14.9499 16.529 14.3026C18.8621 13.382 19.2748 13.2543 20.0286 13.1632C20.5491 13.1085 21.5003 13.1358 22.1015 13.2361C22.6937 13.3364 23.1693 13.5552 23.5372 13.9016C23.8154 14.1659 23.959 14.248 24.1385 14.248C24.3179 14.248 24.3718 14.2206 24.4077 14.1386C24.4525 14.0292 24.4525 13.5096 24.4077 13.3911C24.3538 13.2543 24.0756 12.124 24.0756 12.0328C24.0756 11.9964 24.2641 11.3674 24.4974 10.6472C24.7307 9.92708 24.9191 9.32544 24.9191 9.31632C24.9191 9.30721 24.9371 9.30721 24.964 9.31632C24.9999 9.31632 25.1435 9.7083 25.4665 10.6655L25.9242 12.0055L25.6998 12.8441C25.5742 13.309 25.4665 13.7375 25.4665 13.8104C25.4665 14.3026 25.8972 14.3665 26.3728 13.938C26.642 13.6919 26.7497 13.6281 27.0638 13.5005C27.7189 13.2452 28.2842 13.1541 29.2623 13.1541C30.4019 13.1541 30.707 13.227 32.8606 14.0839C34.0541 14.5579 34.8079 14.8314 35.1668 14.9134C35.7411 15.0593 36.5128 15.1231 36.791 15.041C36.8538 15.0228 36.9884 14.9772 37.0781 14.9408C37.2935 14.8587 37.5089 14.8222 37.5807 14.8678C37.7153 14.9408 37.6704 15.2233 37.5178 15.3236C37.473 15.351 37.2576 15.4512 37.0333 15.5333C36.6295 15.6882 36.5218 15.7521 36.5218 15.825C36.5218 15.8614 36.782 16.5907 38.4152 21.1577C38.8728 22.4248 39.9048 25.3327 40.7214 27.6026C41.5379 29.8815 42.2199 31.7776 42.2379 31.8232C42.2827 31.9234 42.3904 31.969 42.543 31.969C42.6955 31.969 42.6955 32.0146 42.543 32.2334C41.9507 33.1176 40.8739 33.9471 39.6266 34.4667C38.2447 35.041 36.9077 35.2598 35.5257 35.1413C33.8387 34.9954 32.5286 34.4576 31.1826 33.3637C30.8326 33.0811 29.8366 32.0875 29.8366 32.0237C29.8366 31.9872 29.8904 31.969 30.025 31.9417C30.1237 31.9234 30.2404 31.9052 30.2673 31.9052C30.3122 31.9052 30.3391 31.8687 30.366 31.8049C30.384 31.7593 31.2903 29.2069 32.3761 26.144C33.4619 23.0811 34.7092 19.5442 35.1578 18.2954C35.5975 17.0465 35.9654 15.9799 35.9654 15.9344V15.8523L35.6245 15.8706C35.436 15.8797 34.9156 15.907 34.4579 15.9253C33.4888 15.9708 33.3452 15.9617 32.0082 15.7429C31.5056 15.6609 30.9493 15.588 30.7878 15.5606C30.4199 15.515 29.4148 15.5424 29.0738 15.6062C28.4906 15.7156 28.2034 16.0073 27.8265 16.8368C27.7278 17.0556 27.6381 17.2379 27.6201 17.2562C27.5932 17.2835 27.3509 17.2926 26.5882 17.2926H25.5832L25.5652 17.6937C25.5114 18.6418 25.646 19.5169 26.0318 20.6655C26.3011 21.4859 26.4177 22.0419 26.4446 22.7074C26.4895 23.6463 26.4267 24.1021 26.0139 25.67C25.7357 26.7366 25.6729 27.0556 25.637 27.557C25.5832 28.35 25.6639 29.0337 26.0139 30.5196C26.1126 30.9207 26.2203 31.4221 26.2562 31.6408C26.4895 32.9444 26.4087 34.1659 25.9511 35.9891C25.8883 36.2443 25.8344 36.4813 25.8344 36.5087C25.8344 36.536 25.9062 36.6272 25.996 36.7001C26.3011 36.9736 26.5523 37.3747 26.6331 37.7302C26.6869 37.9763 26.6869 38.4321 26.6331 38.6418C26.6061 38.7329 26.5254 38.897 26.4536 39.0155C26.3011 39.2707 26.2382 39.4439 26.2382 39.6627C26.2382 39.8177 26.2382 39.8268 26.3818 39.9727C26.5613 40.1459 27.0369 40.3829 27.5394 40.5561L27.8983 40.6837L28.5803 40.711C29.3789 40.7475 29.8456 40.711 30.6352 40.5834C31.3262 40.4649 31.5595 40.4376 32.1069 40.4102C32.9414 40.3646 33.4708 40.4467 33.9464 40.6655C34.4669 40.9116 34.6822 41.3583 34.6463 42.1331C34.6194 42.5889 34.5207 42.9171 34.3413 43.1176L34.2695 43.1996H15.7752L15.5957 43.0173C15.3445 42.7621 15.3265 42.7074 15.3265 42.1513C15.3265 41.0848 15.5598 40.7201 16.3854 40.5105C16.7533 40.4193 17.2917 40.3829 17.9019 40.4102C18.3955 40.4376 18.6557 40.4649 19.4274 40.5834C20.2709 40.711 21.0067 40.7293 21.6887 40.6563C22.7655 40.5378 23.5462 40.2006 23.6539 39.7903C23.6988 39.6171 23.6718 39.4804 23.5193 39.1705C23.3308 38.7876 23.3039 38.6509 23.3039 38.2589C23.3039 37.639 23.4565 37.2197 23.8064 36.8642C23.9231 36.7457 24.0397 36.6363 24.0756 36.618L24.1474 36.5725L23.941 35.6791C23.5821 34.093 23.5283 33.7375 23.5283 32.8077C23.5283 31.8505 23.609 31.3127 23.9231 30.3646C24.2461 29.3437 24.3448 28.7967 24.3538 27.9672C24.3538 27.2744 24.3089 27.0556 24.0039 26.1714C23.8334 25.6791 23.6808 25.0775 23.5911 24.5032C23.5372 24.1477 23.5283 23.9927 23.5283 23.382C23.5283 22.3701 23.618 21.7411 23.9321 20.4284C24.2641 19.0428 24.4077 18.1495 24.4077 17.4932V17.3109H22.3079L22.2092 17.0374C22.0746 16.6454 21.8771 16.2717 21.6977 16.0711C21.4195 15.7612 21.0606 15.6336 20.3517 15.5789C19.8043 15.5333 19.1492 15.5606 18.5839 15.6518C18.3326 15.6974 17.8301 15.7703 17.4712 15.8341C17.1122 15.8888 16.6815 15.9435 16.5021 15.9526C16.2239 15.9708 15.3535 15.9526 14.2946 15.8888L13.9356 15.8706V15.9799C13.9356 16.0529 14.2407 16.9371 14.7792 18.4321C18.5031 28.7967 19.553 31.6955 19.5889 31.7776C19.6428 31.887 19.6876 31.9143 19.903 31.9599C20.1094 32.0055 20.1094 32.0328 19.9299 32.2881C19.6248 32.7165 19.23 33.1267 18.7813 33.5005C17.8391 34.2753 16.4123 34.8678 14.8868 35.1048C14.5638 35.1504 14.3664 35.1686 13.7113 35.1686C13.2267 35.1686 12.8229 35.1595 12.6524 35.1322C10.9116 34.8952 9.73608 34.4303 8.80284 33.619C8.46185 33.3181 7.87858 32.7439 7.6004 32.4157C7.29531 32.0602 7.27736 31.9872 7.4658 31.9234L7.47477 31.9325Z" fill="#107E50"/>
</svg>
