<svg display="none" xmlns="http://www.w3.org/2000/svg">
	<symbol id="arrow-bottom" viewBox="0 0 24 24">
		<path d="M6 9L12 15L18 9" stroke-width="2" stroke-linecap="round" stroke-linejoin="round" />
	</symbol>

	<symbol id="info" viewBox="0 0 5 12">
		<path
			d="M4.69104 11.3901C4.21662 11.5887 3.83895 11.7393 3.55573 11.8436C3.27324 11.9478 2.94475 12 2.57105 12C1.99672 12 1.54966 11.851 1.23126 11.5539C0.912929 11.2569 0.754529 10.8803 0.754529 10.4228C0.754529 10.2448 0.766238 10.0627 0.789642 9.87738C0.813835 9.69204 0.852067 9.48348 0.904346 9.24926L1.49812 7.0249C1.55039 6.81141 1.59567 6.60864 1.63158 6.41994C1.66749 6.2296 1.68459 6.05505 1.68459 5.89614C1.68459 5.61313 1.62922 5.4145 1.5192 5.30283C1.40764 5.19108 1.19771 5.1365 0.884835 5.1365C0.731906 5.1365 0.574288 5.16043 0.412768 5.21094C0.252812 5.2631 0.113923 5.31026 0 5.35655L0.156837 4.67143C0.54542 4.50338 0.917611 4.35941 1.27263 4.24023C1.62767 4.11941 1.96317 4.05985 2.2792 4.05985C2.84955 4.05985 3.28969 4.20715 3.59945 4.49845C3.90767 4.79053 4.06288 5.17036 4.06288 5.63714C4.06288 5.73395 4.05197 5.90443 4.03088 6.14772C4.00987 6.39186 3.97005 6.61443 3.91232 6.81884L3.32161 9.03664C3.27324 9.21455 3.23033 9.4181 3.19132 9.64567C3.15313 9.87323 3.1344 10.047 3.1344 10.1637C3.1344 10.4583 3.19604 10.6594 3.32088 10.7661C3.44416 10.8729 3.66028 10.9267 3.96614 10.9267C4.11052 10.9267 4.272 10.8994 4.45465 10.8464C4.63567 10.7934 4.7667 10.7463 4.84943 10.7058L4.69104 11.3901ZM4.58649 2.38825C4.31101 2.65968 3.97942 2.79539 3.59164 2.79539C3.20459 2.79539 2.87064 2.65968 2.59288 2.38825C2.31666 2.11682 2.177 1.78663 2.177 1.401C2.177 1.0162 2.3174 0.685193 2.59288 0.411277C2.87064 0.13654 3.20459 0 3.59164 0C3.97942 0 4.31182 0.13654 4.58649 0.411277C4.86189 0.685193 5 1.0162 5 1.401C5 1.78746 4.86189 2.11682 4.58649 2.38825Z" />
	</symbol>

	<symbol id="calendar" viewBox="0 0 24 24">
		<path
			d="M21 10H3M16 2V6M8 2V6M7.8 22H16.2C17.8802 22 18.7202 22 19.362 21.673C19.9265 21.3854 20.3854 20.9265 20.673 20.362C21 19.7202 21 18.8802 21 17.2V8.8C21 7.11984 21 6.27976 20.673 5.63803C20.3854 5.07354 19.9265 4.6146 19.362 4.32698C18.7202 4 17.8802 4 16.2 4H7.8C6.11984 4 5.27976 4 4.63803 4.32698C4.07354 4.6146 3.6146 5.07354 3.32698 5.63803C3 6.27976 3 7.11984 3 8.8V17.2C3 18.8802 3 19.7202 3.32698 20.362C3.6146 20.9265 4.07354 21.3854 4.63803 21.673C5.27976 22 6.11984 22 7.8 22Z"
			stroke-linecap="round" stroke-linejoin="round" />
	</symbol>

	<symbol id="location" viewBox="0 0 24 24">
		<path
			d="M12 13C13.6569 13 15 11.6569 15 10C15 8.34315 13.6569 7 12 7C10.3431 7 9 8.34315 9 10C9 11.6569 10.3431 13 12 13Z"
			stroke-linecap="round" stroke-linejoin="round" />
		<path d="M12 22C16 18 20 14.4183 20 10C20 5.58172 16.4183 2 12 2C7.58172 2 4 5.58172 4 10C4 14.4183 8 18 12 22Z"
			stroke-linecap="round" stroke-linejoin="round" />
	</symbol>

	<symbol id="search" viewBox="0 0 21 21">
		<path
			d="M18.375 18.375L14.5687 14.5687M16.625 9.625C16.625 13.491 13.491 16.625 9.625 16.625C5.75901 16.625 2.625 13.491 2.625 9.625C2.625 5.75901 5.75901 2.625 9.625 2.625C13.491 2.625 16.625 5.75901 16.625 9.625Z"
			stroke-width="2" stroke-linecap="round" stroke-linejoin="round" />
	</symbol>

	<symbol id="burger" viewBox="0 0 24 24">
		<path d="M3 12H17M3 6H21M3 18H21" stroke-width="2" stroke-linecap="round" stroke-linejoin="round" />
	</symbol>

	<symbol id="close" viewBox="0 0 24 24">
		<path d="M18 6L6 18M6 6L18 18" stroke-width="2" stroke-linecap="round" stroke-linejoin="round" />
	</symbol>

	<symbol id="arrow-left" viewBox="0 0 24 24">
		<path d="M15 6L9 12L15 18" stroke-width="2" stroke-linecap="round" stroke-linejoin="round" />
	</symbol>

</svg>